<?xml version="1.0" encoding="utf-8"?>
<!-- Generator: Adobe Illustrator 19.2.0, SVG Export Plug-In . SVG Version: 6.00 Build 0)  -->
<svg version="1.1" id="Layer_1" xmlns="http://www.w3.org/2000/svg" xmlns:xlink="http://www.w3.org/1999/xlink" x="0px" y="0px"
	 viewBox="0 0 654 199" style="enable-background:new 0 0 654 199;" xml:space="preserve">
<style type="text/css">
	.st0{fill:none;stroke:#000000;stroke-miterlimit:10;}
</style>
<g>
	<path d="M400.5,62h-2c-11.6,0-21.5,8.9-21.5,20.5v11v21c0,11.6,9.9,21.5,21.5,21.5h2c11.6,0,20.5-9.9,20.5-21.5v-21v-11
		C421,70.9,412.1,62,400.5,62z"/>
	<path d="M625.3,0H29.7C13.6,0,0,12.6,0,28.7v21.6C0,66.4,13.6,80,29.7,80h4.6C50.4,80,63,92.6,63,108.7v60.6
		c0,16.1,13.6,29.7,29.7,29.7h532.6c16.1,0,28.7-13.6,28.7-29.7V28.7C654,12.6,641.4,0,625.3,0z M73,42c0,11.6-9.4,21-21,21H41
		c-11.6,0-21-9.4-21-21V31c0-11.6,9.4-21,21-21h11c11.6,0,21,9.4,21,21V42z M235,40.5c0,11.6-8.9,21.5-20.5,21.5H184h-23.5
		c-11.6,0-21.5,8.9-21.5,20.5v11v21c0,11.6,9.9,21.5,21.5,21.5h2c11.6,0,21-9.4,21-21s9.4-21,21-21h10c11.6,0,20.5,8.9,20.5,20.5v53
		c0,11.6-8.9,21.5-20.5,21.5h-107c-11.6,0-21.5-9.9-21.5-21.5v-137C86,18.9,95.9,10,107.5,10h107c11.6,0,20.5,8.9,20.5,20.5V40.5z
		 M306,168c0,11.6-9.4,21-21,21h-11c-11.6,0-21-9.4-21-21V31c0-11.6,9.4-21,21-21h11c11.6,0,21,9.4,21,21V168z M473,168
		c0,11.6-9.4,21-21,21H345c-11.6,0-21-9.4-21-21V31c0-11.6,9.4-21,21-21h107c11.6,0,21,9.4,21,21V168z M641,40.5
		c0,11.6-8.9,21.5-20.5,21.5h-6c-11.6,0-21.5,8.9-21.5,20.5v85c0,11.6-8.9,21.5-20.5,21.5h-10c-11.6,0-21.5-9.9-21.5-21.5v-85
		c0-11.6-8.9-20.5-20.5-20.5h-7c-11.6,0-21.5-9.9-21.5-21.5v-10c0-11.6,9.9-20.5,21.5-20.5h27.8h52.5h26.8
		c11.6,0,20.5,8.9,20.5,20.5V40.5z"/>
</g>
</svg>
