<?xml version="1.0" encoding="utf-8"?>
<!-- Generator: Adobe Illustrator 19.2.0, SVG Export Plug-In . SVG Version: 6.00 Build 0)  -->
<svg version="1.1" id="Capa_1" xmlns="http://www.w3.org/2000/svg" xmlns:xlink="http://www.w3.org/1999/xlink" x="0px" y="0px"
	 viewBox="0 0 438.5 438.5" style="enable-background:new 0 0 438.5 438.5;" xml:space="preserve">
<path d="M375.7,227.3c-5.3-5.3-11.8-8-19.4-8h-9.1v-91.2c0-0.1,0-0.1,0-0.2c0-0.3,0-0.6,0-0.9v-0.8h0c-0.4-34.5-12.9-64.1-37.5-88.7
	c-25-25-55.2-37.5-90.4-37.5c-35.2,0-65.3,12.5-90.4,37.5c-25,25-37.5,55.1-37.5,90.4v91.4h-9.1c-7.6,0-14.1,2.7-19.4,8
	c-5.3,5.3-8,11.8-8,19.4v164.5c0,7.6,2.7,14.1,8,19.4c5.3,5.3,11.8,8,19.4,8h274.1c7.6,0,14.1-2.7,19.4-8c5.3-5.3,8-11.8,8-19.4
	V246.7C383.7,239.1,381.1,232.6,375.7,227.3z M146.2,127.9c0-20.2,7.1-37.4,21.4-51.7c14.3-14.3,31.5-21.4,51.7-21.4
	c20.2,0,37.4,7.1,51.7,21.4c14.3,14.3,21.4,31.5,21.4,51.7v91.4H146.2V127.9z"/>
</svg>
