<?xml version="1.0" encoding="utf-8"?>
<!-- Generator: Adobe Illustrator 19.2.0, SVG Export Plug-In . SVG Version: 6.00 Build 0)  -->
<svg version="1.1" id="Capa_1" xmlns="http://www.w3.org/2000/svg" xmlns:xlink="http://www.w3.org/1999/xlink" x="0px" y="0px"
	 viewBox="0 0 533.3 441.3" style="enable-background:new 0 0 533.3 441.3;" xml:space="preserve">
<g>
	<path d="M0,61.3V428h533.3V61.3H0z M200,294.7V228h133.3v66.7H200z M333.3,328v66.7H200V328H333.3z M333.3,128v66.7H200V128H333.3z
		 M166.7,128v66.7H33.3V128H166.7z M33.3,228h133.3v66.7H33.3V228z M366.7,228H500v66.7H366.7V228z M366.7,194.7V128H500v66.7H366.7
		L366.7,194.7z M33.3,328h133.3v66.7H33.3V328z M366.7,394.7V328H500v66.7H366.7z"/>
</g>
</svg>
