<?xml version="1.0" encoding="utf-8"?>
<!-- Generator: Adobe Illustrator 21.0.2, SVG Export Plug-In . SVG Version: 6.00 Build 0)  -->
<svg version="1.1" id="Layer_1" xmlns="http://www.w3.org/2000/svg" xmlns:xlink="http://www.w3.org/1999/xlink" x="0px" y="0px"
	 viewBox="0 0 576 578.4" style="enable-background:new 0 0 576 578.4;" xml:space="preserve">
<path d="M565.3,566.2c-186.4,0-372.6,0-559,0c0-186.4,0-372.7,0-559.4c186.2,0,372.5,0,559,0C565.3,193.2,565.3,379.5,565.3,566.2z
	 M14,558.5c1.5,0,2.8,0,4.1,0c178.4,0,356.8,0,535.2,0c4.4,0,4.4,0,4.4-4.3c0-178.8,0-357.6,0-536.4c0-1.1,0-2.1,0-3.2
	c-181.4,0-362.5,0-543.6,0C14,195.9,14,376.9,14,558.5z"/>
<path d="M552.9,19.1c0,178.2,0,356.2,0,534.5c-178,0-355.9,0-534.1,0c0-178,0-356.2,0-534.5C196.7,19.1,374.7,19.1,552.9,19.1z
	 M539.9,32.3c-169.5,0-338.8,0-508,0c0,169.6,0,338.9,0,508.2c169.5,0,338.7,0,508,0C539.9,371,539.9,201.8,539.9,32.3z"/>
<path d="M162.9,45c1.5,4.3,3.6,8.5,4.3,12.9c2.3,13.4,4.6,26.8,5.9,40.3c2.6,26.8,4.5,53.6,6.9,80.4c0.8,9.1,2.2,18.2,3.5,27.3
	c0.3,2.2,1.1,4.5,1.9,6.6c3.7,9.6,11,14.8,21.4,15c9.2,0.2,17.9-2.1,26.2-5.6c9.6-4.1,18.9-8.9,28.3-13.6c1.6-0.8,2.9-2.1,4.1-3.5
	c2.6-2.9,2.3-5-1.1-7c-6.8-4-13.7-7.9-20.6-11.7c-15.3-8.6-31.1-16.6-44.9-27.6c-8.8-6.9-14.5-16-14-27.8c0.2-6.3,2.4-12.2,6.6-17
	c18.3-21.4,40.7-37.3,65.6-50.1c4.3-2.2,8.5-4.4,12.9-6.5c1.9-0.9,2.5-2.3,1.5-3.8c-0.5-0.8-2.3-1.4-3.4-1.1
	c-10.4,2.4-19.3,7.9-28.3,13.4c-13.7,8.3-26.4,18-38.6,28.4c-0.8,0.6-1.6,1.7-2.4,1.7c-2,0-4.3,0-5.9-0.9c-0.7-0.4-0.4-3.8,0.5-5
	c3.3-4.2,6.9-8.3,10.7-12c13.6-13.5,29.6-23.7,45.8-33.7c6.3-3.9,12.6-7.3,19.8-8.8c8.3-1.7,12.1,1.3,12.3,9.9c0.1,2.1,0,4.2,0,6.6
	c7.4-2,14.3-4.2,21.4-5.8c8.7-2,17.5-3.8,26.4-5.3c3-0.5,6.4,0.1,9.5,0.8c6.6,1.5,10.1,6,10.6,12.8s-0.9,13.4-3,19.7
	c-1.7,5.1-3.8,10-6,14.9c-0.8,1.8-2.3,3.3-3.8,4.6c-0.9,0.8-2.4,1-3.6,1.5c-0.5-1.4-1.4-2.8-1.4-4.2c0-1.6,0.8-3.3,1.3-4.9
	c0.7-2.3,1.7-4.5,2.2-6.8c2.1-9.4-3.4-16-12.9-14.7c-9.7,1.3-19.4,2.9-28.7,5.6c-33.1,9.6-62,26.9-88.1,49c-0.9,0.8-1.8,1.6-2.8,2.3
	c-4.4,3.3-4.6,6.3-0.4,10c3.2,2.8,6.6,5.6,10.3,7.7c14.1,8.1,28.4,15.9,42.7,23.7c6.1,3.4,12.3,6.7,18.5,9.8
	c3.7,1.9,6.1,4.8,6.5,8.8c0.7,6.2,0.8,12.5,1.1,18.8c0.1,1.9-0.4,3.8-0.5,5.7c-0.6,13.1-7.8,22.4-18,29.7
	c-19.9,14.3-42.1,21.7-66.8,20.7c-2.3-0.1-4.6-0.4-6.8-0.9c-1.9-0.4-2.3,0.4-2.4,2c-0.2,3,1.6,5,4.2,5.4c5.4,0.8,10.9,1.9,16.3,1.4
	c26.1-2.2,50.2-11.2,73.2-23.1c0.9-0.5,1.8-0.9,2.7-1.3c0.3-0.1,0.6-0.1,1.1-0.2c0.3,2,0.6,3.9,1,5.8c0.8,4.1,3.2,6.5,7.5,7.6
	c6.9,1.7,13.3,0.1,19.4-3c4-2,7.7-4.7,11.5-7.1c1.2-0.8,2.4-1.7,3.8-2.6c0.4,0.8,0.7,1.3,1,1.8c3.4,6.4,8.1,8,14.4,4.3
	c3.7-2.1,6.9-5.1,10.2-7.7c0.9-0.7,1.7-1.6,2.2-2.1c2.8,2.7,5.1,5.4,7.9,7.6c1.5,1.1,3.6,1.7,5.5,1.9c4.7,0.4,7.8-2.9,7.5-7.6
	c-0.1-1.6-0.6-3.1-1.1-4.6c-2.9-8-6-15.9-8.7-23.9c-5.2-15.6-3-30.2,6.5-43.6c0.7-1.1,2.5-1.9,3.8-1.9c2.1,0,2,1.9,1.9,3.6
	c-0.3,6.8,2.3,12.6,5.8,18.3c0.8,1.3,0.8,3.3,1,4.9c0.1,0.6-0.2,1.2-0.3,1.8c-2.2,8-2.2,15.5,0.5,23.8c4.7,14,2.8,28.3-3.7,41.7
	c-4.1,8.4-8.1,11.5-17.4,13.5c8.9,19.9,6.1,40,0.3,60.5c2.3-0.3,4.3-0.5,6.3-0.9c14-3.2,28-6.4,42.1-9.6c1.4-0.3,2.7-0.6,4.1-0.7
	c4.5-0.2,6.4,1.7,6.5,6.2c0,1.6,0.1,3.2,0.3,4.8c1.6,10.6,8.2,14.9,18.6,12.3c7.6-1.9,14.2-5.7,20.5-10.3c1-0.8,2.1-1.5,3.2-2.4
	c1.1,2.1,1.9,4.2,3,6c2.1,3.6,4.7,4.7,8.8,4c10.1-1.8,14.3-10.4,9.3-19.5c-0.7-1.2-1.3-2.7-2.4-3.4c-3.6-2.5-2.8-5.3-1.3-8.7
	c2.7-6,5.1-12.2,7.6-18.3c0.1-0.2,0.2-0.3,0.5-0.8c0.5,0.6,1.1,1.1,1.5,1.7c16.3,23.5,12.2,53.6-10.1,73.2c-3.2,2.8-7.1,5.3-11,6.9
	c-6.1,2.5-11.9,0.3-15.9-5c-0.8-1-1.5-2.1-2.2-3.2c-4.5,1.9-8.8,4.1-13.3,5.5c-3.9,1.2-8.2,2-12.3,2.2c-6.4,0.3-11.2-2.9-14-8.5
	c-1.7-3.4-2.7-7.1-3.8-10.7c-0.6-1.8-1.3-2.7-3.4-2.2c-10.7,2.6-21.4,5.1-32.1,7.6c-0.5,0.1-0.9,0.3-1.6,0.5
	c0.3,2.3,0.7,4.5,0.9,6.8c1.7,15.1-2,29-9.8,41.8c-3.2,5.3-10,7.5-17.3,5.7c-14-3.3-21.5-12.6-23.9-26.4c-0.7-4.1-1.1-8.3-1.7-12.8
	c-1.2,0.1-2.6,0.2-3.9,0.2c-5.5-0.3-11.1-0.1-16.3-1.3c-9.3-2.1-14.5-8.8-15.3-18.4c-0.1-0.8-0.2-1.5-0.4-2.7
	c-6.4,1.9-12.6,3.7-18.8,5.5c-19.3,5.6-38.6,11.2-58.4,14.4c-8.7,1.4-17.4,2.2-26.3,1.2c-14.1-1.6-22.4-9.6-25.7-23.1
	c-1-3.8-1.6-7.8-2.4-12.2c-0.9,1-1.7,1.8-2.4,2.7c-10.8,12.7-22.2,24.7-36.4,33.7c-7.5,4.8-15.4,8.4-24.1,10.5
	c-13.7,3.4-26.4-3.1-31.9-16.2c-2.8-6.7-3.3-13.7-2.5-20.9c1.1-9.4,4-18.3,8-26.9c0.8-1.7,3-2.7,4.6-4.1c0.4,2,1.2,4.2,1,6.1
	c-0.7,4.7-2,9.4-2.8,14.1c-0.3,2-0.1,4.2,0.1,6.3c0.8,6.8,5.1,11.3,11.8,12.5c7.5,1.3,14.5-0.7,21.3-3.4c17.3-6.8,31.8-17.9,45-30.7
	c0.8-0.7,1.1-2.3,1.1-3.5c-0.1-22.9-4-45.2-12.5-66.5c-2.4-6.1-2.8-11.5-1-17.8c2.7-9.2,4.6-18.6,7.4-28.1c1.4,4,2.8,7.9,4.1,11.9
	c10.2,30.8,16.4,62.5,21,94.6c0.8,5.9,2.4,11.8,4.4,17.4c3.4,9.8,10.9,14.6,21,15.8c9.1,1.1,17.9-0.4,26.7-2.7
	c25.8-6.9,51.7-13.8,77.9-20.8c0.4,2.3,0.7,4.6,1.3,6.7c1,3.5,2,7.1,3.5,10.5c1.7,3.7,5,6.1,9.1,5.8c5.9-0.5,11.8-1.6,17.7-2.7
	c0.9-0.2,1.7-1.8,2.1-3c5.1-13.9,9.9-27.8,15.2-41.6c3.3-8.6,7.2-16.9,10.9-25.3c0.2-0.5,0.4-1.1,0.7-1.8c-2.6-1.4-5-2.6-7.8-4.2
	c-10.3,12.2-22.4,13.6-35.7,4.7c-3,2.4-5.7,4.9-8.7,7c-6.4,4.4-13.3,7-21.2,4.4c-4.9-1.6-8.6-5-11.8-8.9c-0.6-0.8-1.2-1.5-1.8-2.3
	c-7.9,3.9-15.6,8-23.4,11.6c-10.7,4.9-21.7,8.7-33.6,9.4c-9.9,0.6-19.3-1.1-26.8-7.9c-2.9-2.6-5.1-6.2-6.7-9.7
	c-4.7-9.9-6-20.4-4.2-31.3c0.2-1.1,0.3-2.5-0.2-3.5c-6.3-14.9-8.6-30.7-9.7-46.7c-0.9-13.3-2.3-26.5-3.8-39.7
	c-1.9-16.4-4.1-32.7-6.5-49c-1-6.4-2.9-12.6-4.3-19c-0.3-1.1-0.5-2.4-0.2-3.5c3.5-12.1,7-24.2,10.5-36.2c0.1-0.3,0.3-0.5,0.4-0.7
	C162.1,45.2,162.5,45.1,162.9,45z M361.1,316.8c-0.5-5.8-1.1-11.5-4.2-16.6c-1.7-2.9-3.9-2.7-5.2,0.3c-0.9,2-1.4,4.1-2.1,6.2
	c-2.2,6.5-4.5,13-6.4,19.6c-0.4,1.4,0.3,3.1,0.6,4.7c1.5-0.3,3.1-0.2,4.4-0.9c3-1.6,5.6-3.8,8.7-5.3
	C360.2,323.2,361.2,320.4,361.1,316.8z M358.6,386.8c1.8,0,4.2,0.3,5.2-2.4c1-2.7,0.5-5.1-1.7-7c-0.5-0.5-1-0.9-1.6-1.4
	c-5.6-4.6-11.9-8.1-18.8-10.3c-1.3-0.4-3.4-0.5-4.1,0.2c-0.8,0.9-1,3-0.6,4.3C339.8,379.9,348.4,386.5,358.6,386.8z"/>
<path d="M276.2,435.5c0.3,2,0.5,3.5,0.8,4.9c2.1,9.7,8.2,14,17.8,11c6.5-2,12.5-5.5,18.7-8.5c2-1,3.8-2.5,6-3.9
	c0.3,0.9,0.6,1.5,0.9,2.2c2.9,8.4,8.9,11.5,17.4,8.9c6.3-1.9,11.7-5.5,16.9-9.5c0.9-0.7,1.7-1.3,2.9-2.2c0.4,2.5,0.7,4.7,1.2,6.7
	c1.4,5.8,3.8,7.7,9.8,7.5c2.6-0.1,5.2-0.3,7.7-0.8c0.9-0.2,2-1.2,2.4-2.1c8.8-20.8,17.6-41.6,26.2-62.4c1.3-3.2,2.2-6.6,3.6-9.8
	c0.6-1.3,2-2.3,3-3.5c1.2,1.1,3,2,3.3,3.4c1.5,5.2,2.9,10.4,3.5,15.7c1.6,12.5,1.5,25.1-0.7,37.6c-0.6,3.3-2.2,6.4-3.3,9.6
	c-0.4,1.2-0.9,2.4-1.6,4.2c7.8-0.6,15.1-0.7,22.3-1.8c15.6-2.4,31.1-5.1,46.6-8.3c4.1-0.8,8.1-3.4,11.4-6.1
	c5.5-4.5,6.1-11.9,2.1-19.1c-1-1.8-0.9-3.1,0.1-4.8c4.1-6.7,7.9-13.4,11.9-20.1c0.1-0.2,0.3-0.2,1.1-0.9c1,5.7,2.2,11,2.7,16.3
	c1.1,12.7-0.4,25.1-4.3,37.3c-3.8,11.8-12,19.3-23.1,24.1c-11.4,5-23.7,6.2-35.9,7.8c-7.3,0.9-14.6,1.9-22.2,2.9
	c0.5,4.4,1,8.5,1.3,12.6c0.6,9.2-0.6,18.2-4.6,26.6c-5.2,10.9-15.5,17.2-25.5,15.9c-12.7-1.7-22.9-11-24.6-23.1
	c-0.8-5.8-0.5-11.7-0.6-17.6c0-1,0-2,0-3.4c-9.7,0.1-18.7-1.8-24.9-10.1c-4,2-7.7,3.9-11.5,5.6c-2.6,1.1-5.4,2-8.2,2.7
	c-7.7,2-14.2,0-19.4-6.2c-0.9-1.1-1.8-2.1-2.7-3.1c-2.8,2.1-5.4,4.3-8.2,6.1c-12.1,7.8-22.7,5.3-30.3-7.1c-0.4-0.6-0.8-1.1-1.2-1.8
	c-6.5,3.5-12.8,7.1-19.4,10.3c-5.9,2.9-11.9,5.8-18.7,5.9c-17.6,0.3-28.2-8.1-31.1-25.5c-1.3-7.9-1.2-16.1-1.4-24.2
	c-0.1-5.6-1.9-7.9-7.4-6.7c-11.8,2.5-21.3,8.8-28.4,18.6c-1.7,2.3-0.9,4.6,1.4,5.9c3.1,1.7,6.5,3,9.9,4.1c5.1,1.6,10.5,2.6,15.5,4.4
	c11,4,14.8,12.3,10.9,23.4c-3.3,9.5-7.9,18.3-16.3,24.2c-4.9,3.5-10.4,6.3-15.8,9.2c-15.9,8.5-32.4,15.5-50.4,18.4
	c-13.4,2.1-26.7,1.5-39.8-2.3c-1.3-0.4-2.5-1.2-3.5-2.2C62,523.7,58.1,513,57,501.2c-1.8-18.7,2.8-36.5,8.8-54
	c2.4-7.2,5.1-14.3,7.9-21.4c1-2.5,2.5-4.8,4-7c0.5-0.7,1.9-1.4,2.7-1.2c0.8,0.2,1.9,1.5,1.8,2.3c-0.1,2.8,0,5.9-1,8.4
	c-4.6,11.9-8.6,23.9-10.1,36.6c-1.3,11.2-1.4,22.4,4.9,32.6c4.9,7.9,12.1,12,21.5,11.9c22.2-0.1,42.6-6.8,62.2-16.7
	c2-1,4.1-2.1,6-3.4c2.2-1.5,2.1-2.8-0.4-3.8c-2.4-0.9-4.9-1.7-7.5-2.1c-13.6-2.5-17-13.4-15.9-23.2c0.3-2.8,0.7-5.6,1.7-8.2
	c5.7-14.3,12.6-27.9,23.5-39c7.6-7.7,16.7-12.6,27.9-12.7c6.5-0.1,11.4,3.2,13.1,9.5c1,3.4,1.2,7.1,1.3,10.6
	c0.2,4.4-0.3,8.8-0.1,13.2c0.4,17.2,11.1,25.3,27.7,21c10.4-2.7,19.7-7.7,28.9-13C269.2,439.6,272.5,437.6,276.2,435.5z
	 M408.4,431.4c0.3-0.1,0.6-0.1,0.9-0.2c-1.6-5.3-3-10.7-4.8-15.9c-0.4-1.1-1.9-2.5-2.9-2.5s-2.3,1.5-2.7,2.7
	c-3,8.7-5.9,17.4-8.6,26.1c-0.3,1.1,0,3.1,0.8,3.7c0.7,0.6,2.7,0.3,3.7-0.3c3.1-1.7,6-4,9.2-5.6C407.5,437.7,408.6,435,408.4,431.4z
	 M405.7,499.8c0.1,0.2,0.3,0.5,0.4,0.7c1.7-1,3.8-1.6,4.8-3c1.4-2,0.8-4.4-0.7-6.4c-0.4-0.5-1-1-1.5-1.4c-5.8-5-12.3-8.8-19.7-11
	c-1.3-0.4-3.3-0.4-4.1,0.3c-0.8,0.8-0.9,2.8-0.5,4.1C387.1,491.3,394.3,499.7,405.7,499.8z"/>
<path d="M410.6,303.7c-1.1,0-2.2-0.1-3.3,0c-5.5,0.7-8.5-2.5-10.5-7c-2.6-5.7-3.1-11.9-2.3-17.9c1.4-9.7,3.3-19.3,5.4-28.8
	c0.4-2.1,2.3-3.9,3.8-5.6c0.8-0.9,2.6-1.7,3.5-1.3c1,0.4,1.9,2.2,1.8,3.4c-0.2,3.9-0.9,7.7-1.4,11.5c-0.1,0.7-0.4,1.3-0.6,2
	c-1.7,6.9,1.9,12.2,9,12.4c3.8,0.1,7.8-0.5,11.6-1.2c21.5-4.4,40.6-14.3,58.7-26.3c5.4-3.6,10.8-7.2,16.1-10.9
	c1.5-1,2.8-2.3,3.9-3.7c2.1-2.7,2.1-5.6-0.1-8.2c-1.2-1.4-2.7-2.6-4.2-3.8c-14.9-11-29.9-22-44.8-33.1c-4.2-3.1-8.4-6.2-11.9-10
	c-10-10.9-13-23.6-8.4-37.8c1.8-5.7,5.3-6.4,9.4-1.9c3,3.2,5.8,6.7,8.8,9.8c5.4,5.4,11.8,9.2,18.9,11.8c1.7,0.6,2.9,1.4,2.4,3.4
	c-1.6,6.9,1.7,10.6,7.6,14c11.3,6.5,21.8,14.2,30.1,24.5c9.8,12,11.9,25.2,5.6,39.5c-0.8,1.8-2,3.5-3.3,5
	c-15.7,18.2-34.3,33-55.1,44.8c-13.2,7.5-27.2,13.7-42.6,15.2c-2.7,0.3-5.4,0.3-8.1,0.5C410.6,303.8,410.6,303.8,410.6,303.7z"/>
<path d="M77,210.6c-8.9-6.6-17.5-13.2-26.3-19.7c-1.7-1.3-2.4-2.5-2.3-4.7c0.3-7.6,0.5-15.3,0.7-22.8c12.8,9,25.4,17.9,38.3,27
	c1.5-3.3,2.5-6.1,4-8.6c1.6-2.8,3.4-5.6,5.7-8c2.9-3,5.1-3.1,9.1-1.1c-2,3.8-4.1,7.5-6.1,11.3c-4.9,9.4-4.8,9.4,1.9,17
	c3.6,4.1,7.1,8.4,10.7,12.5c7.3,8.4,8.9,18,6.7,28.6c-4,19-16.1,30.6-34,36.4c-8.8,2.8-17.5-3.3-19.4-12.3
	c-3.1-15.3,0.1-29.8,5.7-43.9C73.2,218.5,75.2,214.7,77,210.6z M85.9,218.2c-4.2,7.4-7.4,14.7-6.8,23.2c0.3,4,2.2,6.9,5.2,7
	c6.2,0.4,12.4-0.2,18.2-2.7c3.4-1.4,4.6-4.8,2.7-7.9C100.4,229.9,94.2,223.2,85.9,218.2z"/>
<path d="M414.2,232c-0.4-18.6-3.4-37-6.5-55.3c-3.7-22.7-7.7-45.3-9.2-68.3c-0.8-12.1,0-24.2,1.9-36.1c1-6.7,1.8-13.5,2.7-20.2
	c0-0.3-0.1-0.7,0.1-0.9c1.5-2,2.9-5.5,4.6-5.7c2.7-0.3,2,3.3,2.2,5.3c0.9,8.1,1,16.4,2.3,24.5c0.9,5.3,3.2,10.4,5,15.6
	c0.4,1.1,1.1,2.3,2.1,2.9c3.8,2.4,3.8,5.6,3.2,9.5c-1,5.8-1.3,11.7-2.1,17.6c-0.1,1-0.8,2.4-1.7,2.8c-2,0.9-2.3,2.1-2,4
	c2.2,14.8,4.2,29.7,6.5,44.4c3,19.1,5.3,38.2,3.2,57.6c-0.6,5.6-1.8,11.2-3.1,16.8c-0.5,2.3-1.6,5.1-4.5,4.9
	c-2.8-0.2-3.5-3.1-3.8-5.5C414.6,241.2,414.5,236.6,414.2,232z"/>
<path d="M277.5,390.8c3.8,3.3,7.6,6.3,11.1,9.6c3.7,3.6,4.4,8.9,1.5,13.5c-2.9,4.7-6.5,9-9.6,13.1c-5.1-4.8-9.8-9.4-14.4-13.8
	c-5,5.9-9.6,11.1-14,16.3c-6.4-5.8-12.2-11.1-18.3-16.6c5-6,10.2-12.3,15.8-19.1c4.7,4.5,9.2,8.8,14,13.3
	C267.8,402.1,272.5,396.6,277.5,390.8z"/>
<path d="M336.1,172.4c-5.2-5-9.9-9.4-14.5-13.8c-5,5.9-9.5,11.1-14,16.4c-6.3-5.8-12.1-11-18.3-16.7c4.9-5.9,10.1-12.2,15.8-19
	c4.7,4.5,9.2,8.8,14,13.3c4.3-5.1,9-10.6,14-16.4c4,3.5,8.1,6.7,11.6,10.4c3.3,3.5,3.7,8.1,1.1,12.2
	C342.8,163.5,339.3,167.9,336.1,172.4z"/>
<path d="M223.3,500c3.8,3.2,7.4,6.1,10.7,9.2c4,3.7,4.8,8.9,1.8,13.9c-2.8,4.6-6.4,8.8-9.9,13.6c-4.5-5.7-8.8-10.7-14.5-13.8
	c-4.6,5.4-9.1,10.6-13.5,15.8c-6.4-5.8-12.3-11.1-18.3-16.7c5-6,10.2-12.3,15.8-19.1c4.7,4.6,9.2,8.9,13.9,13.4
	C213.8,511.3,218.4,505.8,223.3,500z"/>
<path d="M481.4,106.9c4.5-5.2,9.1-10.7,14-16.4c3.9,3.5,8,6.6,11.5,10.2c3.5,3.5,3.8,8.7,0.8,13.3c-2.9,4.5-6.4,8.6-9.4,12.6
	c-5-4.8-9.7-9.3-14.4-13.7c-5.1,5.9-9.6,11.2-14,16.3c-6.3-5.8-12.1-11.1-18.3-16.7c5-6,10.2-12.3,15.8-19.1
	C472.2,98.1,476.7,102.4,481.4,106.9z"/>
<path d="M95.9,111.6c-5.6-4.7-11.1-9.2-16.9-13.9c5.3-6.3,10.8-12.9,16.4-19.6c3.7,3.2,7.3,6.2,10.6,9.4c3.1,3,3.7,7,1.8,10.8
	c-1.9,3.7-4.6,7-7,10.3c-0.7,1-1.7,1.9-2.9,3.1c2.8,2.5,5.5,4.8,8.2,7.1c4.2,3.7,5.1,7.6,2.9,12.6c-2.5,5.7-6.8,10-10.9,13.7
	c-6-5.1-11.8-9.9-17.8-15C85.1,124.5,90.2,118.4,95.9,111.6z"/>
<path d="M480.2,60.5c3.5,3.1,6.6,5.7,9.6,8.5c4,3.6,5.2,8,2.4,12.7c-3,5-6.8,9.5-10.1,13.9c-6.5-5.5-12.3-10.4-18.4-15.5
	C469,73.7,474.5,67.2,480.2,60.5z"/>
<path d="M264.9,398.3c-6.1-5.1-11.8-9.9-17.8-15.1c5.2-6.2,10.7-12.8,16.4-19.6c3.8,3.4,7.7,6.6,11.1,10.1c2.7,2.8,2.8,6.5,1.4,10.1
	C273.7,390,269,394.2,264.9,398.3z"/>
<path d="M319.7,141.1c-6.6-5.5-12.3-10.4-18.3-15.4c5.3-6.3,10.7-12.8,16.4-19.6c3.8,3.5,7.8,6.7,11.3,10.3
	c3.2,3.4,2.8,7.8,0.5,11.5C326.6,132.7,322.9,137,319.7,141.1z"/>
<path d="M352.2,105.4c5.3-6.4,10.8-12.9,16.4-19.5c3.5,3,6.9,5.9,10.1,8.8c3.4,3.1,4.2,7.2,2.3,11.8c-2.4,5.9-6.9,10.1-10.9,14
	C364,115.4,358.3,110.5,352.2,105.4z"/>
<path d="M461.6,512.9c5.3-6.4,10.8-12.8,16.5-19.6c3.8,3.4,7.7,6.5,11,10c3.4,3.6,3.1,8.1,0.6,12c-3,4.7-6.6,8.9-9.8,13.1
	C473.5,522.9,467.7,518,461.6,512.9z"/>
</svg>
