<?xml version="1.0" encoding="utf-8"?>
<!-- Generator: Adobe Illustrator 19.2.0, SVG Export Plug-In . SVG Version: 6.00 Build 0)  -->
<svg version="1.1" id="Capa_1" xmlns="http://www.w3.org/2000/svg" xmlns:xlink="http://www.w3.org/1999/xlink" x="0px" y="0px"
	 viewBox="0 0 93.6 93.6" style="enable-background:new 0 0 93.6 93.6;" xml:space="preserve">
<g>
	<g>
		<path d="M72.9,47.8c-0.1,0-0.1,0-0.2,0v4.3v5v14.7H19V17.8h23.8c0-0.1,0-0.1,0-0.2v-8c0-0.1,0-0.2,0-0.3H12.1
			c-0.9,0-1.6,0.7-1.6,1.6v67.6c0,0.9,0.7,1.6,1.6,1.6h67.6c0.9,0,1.6-0.7,1.6-1.6V48.5v-0.7c-0.1,0-0.2,0-0.2,0H72.9L72.9,47.8z"/>
		<path d="M60.8,20.7L30.4,50.9C30.1,51.2,30,51.6,30,52c0,0.4,0.2,0.8,0.5,1.1l7,7c0.3,0.3,0.7,0.5,1.1,0.5s0.8-0.2,1.1-0.5
			l30.3-30.3l7.4,7.4c0.4,0.4,1,0.5,1.6,0.4c0.5-0.2,0.9-0.7,1-1.3l3-27.1c0.2-0.4,0-0.9-0.4-1.2c-0.3-0.3-0.8-0.5-1.2-0.5
			l-27.1,3.1c-0.6,0-1.1,0.5-1.3,1s-0.1,1.2,0.4,1.6L60.8,20.7z"/>
	</g>
</g>
</svg>
