<?xml version="1.0" encoding="utf-8"?>
<!-- Generator: Adobe Illustrator 21.0.2, SVG Export Plug-In . SVG Version: 6.00 Build 0)  -->
<svg version="1.1" id="Capa_1" xmlns="http://www.w3.org/2000/svg" xmlns:xlink="http://www.w3.org/1999/xlink" x="0px" y="0px"
	 viewBox="0 0 438.5 438.5" style="enable-background:new 0 0 438.5 438.5;" xml:space="preserve">
<style type="text/css">
	.st0{fill:#3C6E45;}
</style>
<g>
	<path class="st0" d="M375.7,227.3c-5.3-5.3-11.8-8-19.4-8H146.2v-91.4c0-20.2,7.1-37.4,21.4-51.7c14.3-14.3,31.5-21.4,51.7-21.4
		s37.4,7.1,51.7,21.4c14.3,14.3,21.4,31.5,21.4,51.7c0,4.9,1.8,9.2,5.4,12.8s7.9,5.4,12.8,5.4h18.3c4.9,0,9.2-1.8,12.8-5.4
		c3.6-3.6,5.4-7.9,5.4-12.8c0-35.2-12.5-65.3-37.5-90.4c-25-25-55.2-37.5-90.4-37.5s-65.3,12.5-90.4,37.5
		c-25,25-37.5,55.1-37.5,90.4v91.4h-9.1c-7.6,0-14.1,2.7-19.4,8s-8,11.8-8,19.4v164.5c0,7.6,2.7,14.1,8,19.4s11.8,8,19.4,8h274.1
		c7.6,0,14.1-2.7,19.4-8s8-11.8,8-19.4V246.7C383.7,239.1,381.1,232.6,375.7,227.3z"/>
</g>
</svg>
